<mxfile host="app.diagrams.net" modified="2024-06-11T00:21:25.279Z" agent="Mozilla/5.0 (Windows NT 10.0; Win64; x64) AppleWebKit/537.36 (KHTML, like Gecko) Chrome/125.0.0.0 Safari/537.36 Edg/125.0.0.0" etag="LmDqSSO5QvaA7g4V2i0t" version="24.4.14" type="device">
  <diagram name="Page-1" id="52mJ8xHrCX69ftBOqQUE">
    <mxGraphModel dx="1489" dy="831" grid="1" gridSize="10" guides="1" tooltips="1" connect="1" arrows="1" fold="1" page="1" pageScale="1" pageWidth="850" pageHeight="1100" math="0" shadow="0">
      <root>
        <mxCell id="0" />
        <mxCell id="1" parent="0" />
        <mxCell id="czHhYplGZpNrWgwJSrv3-1" style="edgeStyle=orthogonalEdgeStyle;rounded=0;orthogonalLoop=1;jettySize=auto;html=1;exitX=1;exitY=0.5;exitDx=0;exitDy=0;entryX=0;entryY=0.5;entryDx=0;entryDy=0;" edge="1" parent="1" source="czHhYplGZpNrWgwJSrv3-6" target="czHhYplGZpNrWgwJSrv3-20">
          <mxGeometry relative="1" as="geometry" />
        </mxCell>
        <mxCell id="czHhYplGZpNrWgwJSrv3-2" style="edgeStyle=orthogonalEdgeStyle;rounded=0;orthogonalLoop=1;jettySize=auto;html=1;exitX=0.5;exitY=0;exitDx=0;exitDy=0;entryX=0.5;entryY=1;entryDx=0;entryDy=0;" edge="1" parent="1" source="czHhYplGZpNrWgwJSrv3-6" target="czHhYplGZpNrWgwJSrv3-23">
          <mxGeometry relative="1" as="geometry" />
        </mxCell>
        <mxCell id="czHhYplGZpNrWgwJSrv3-3" style="edgeStyle=orthogonalEdgeStyle;rounded=0;orthogonalLoop=1;jettySize=auto;html=1;exitX=0;exitY=0.5;exitDx=0;exitDy=0;entryX=0;entryY=0.5;entryDx=0;entryDy=0;" edge="1" parent="1" source="czHhYplGZpNrWgwJSrv3-6" target="czHhYplGZpNrWgwJSrv3-47">
          <mxGeometry relative="1" as="geometry">
            <Array as="points">
              <mxPoint x="290" y="655" />
              <mxPoint x="290" y="350" />
            </Array>
          </mxGeometry>
        </mxCell>
        <mxCell id="czHhYplGZpNrWgwJSrv3-4" style="edgeStyle=orthogonalEdgeStyle;rounded=0;orthogonalLoop=1;jettySize=auto;html=1;exitX=0;exitY=0.5;exitDx=0;exitDy=0;entryX=0;entryY=0.5;entryDx=0;entryDy=0;" edge="1" parent="1" source="czHhYplGZpNrWgwJSrv3-6" target="czHhYplGZpNrWgwJSrv3-57">
          <mxGeometry relative="1" as="geometry">
            <Array as="points">
              <mxPoint x="290" y="655" />
              <mxPoint x="290" y="1020" />
              <mxPoint x="760" y="1020" />
              <mxPoint x="760" y="890" />
            </Array>
          </mxGeometry>
        </mxCell>
        <mxCell id="czHhYplGZpNrWgwJSrv3-5" style="edgeStyle=orthogonalEdgeStyle;rounded=0;orthogonalLoop=1;jettySize=auto;html=1;exitX=0.5;exitY=1;exitDx=0;exitDy=0;entryX=0.5;entryY=0;entryDx=0;entryDy=0;" edge="1" parent="1" source="czHhYplGZpNrWgwJSrv3-6" target="czHhYplGZpNrWgwJSrv3-32">
          <mxGeometry relative="1" as="geometry" />
        </mxCell>
        <mxCell id="czHhYplGZpNrWgwJSrv3-6" value="Homepage" style="rounded=0;whiteSpace=wrap;html=1;" vertex="1" parent="1">
          <mxGeometry x="310" y="625" width="120" height="60" as="geometry" />
        </mxCell>
        <mxCell id="czHhYplGZpNrWgwJSrv3-7" style="edgeStyle=orthogonalEdgeStyle;rounded=0;orthogonalLoop=1;jettySize=auto;html=1;exitX=0.5;exitY=0;exitDx=0;exitDy=0;entryX=0.5;entryY=1;entryDx=0;entryDy=0;" edge="1" parent="1" source="czHhYplGZpNrWgwJSrv3-9" target="czHhYplGZpNrWgwJSrv3-10">
          <mxGeometry relative="1" as="geometry" />
        </mxCell>
        <mxCell id="czHhYplGZpNrWgwJSrv3-8" style="edgeStyle=orthogonalEdgeStyle;rounded=0;orthogonalLoop=1;jettySize=auto;html=1;exitX=0.5;exitY=0;exitDx=0;exitDy=0;entryX=0.5;entryY=1;entryDx=0;entryDy=0;" edge="1" parent="1" source="czHhYplGZpNrWgwJSrv3-9" target="czHhYplGZpNrWgwJSrv3-70">
          <mxGeometry relative="1" as="geometry" />
        </mxCell>
        <mxCell id="czHhYplGZpNrWgwJSrv3-9" value="User Profile" style="rounded=0;whiteSpace=wrap;html=1;" vertex="1" parent="1">
          <mxGeometry x="780" y="540" width="120" height="60" as="geometry" />
        </mxCell>
        <mxCell id="czHhYplGZpNrWgwJSrv3-10" value="Change password" style="rounded=0;whiteSpace=wrap;html=1;" vertex="1" parent="1">
          <mxGeometry x="710" y="410" width="120" height="60" as="geometry" />
        </mxCell>
        <mxCell id="czHhYplGZpNrWgwJSrv3-11" style="edgeStyle=orthogonalEdgeStyle;rounded=0;orthogonalLoop=1;jettySize=auto;html=1;exitX=0.5;exitY=0;exitDx=0;exitDy=0;entryX=0.5;entryY=1;entryDx=0;entryDy=0;" edge="1" parent="1" source="czHhYplGZpNrWgwJSrv3-20" target="czHhYplGZpNrWgwJSrv3-9">
          <mxGeometry relative="1" as="geometry" />
        </mxCell>
        <mxCell id="czHhYplGZpNrWgwJSrv3-12" style="edgeStyle=orthogonalEdgeStyle;rounded=0;orthogonalLoop=1;jettySize=auto;html=1;exitX=1;exitY=0.5;exitDx=0;exitDy=0;entryX=0;entryY=0.5;entryDx=0;entryDy=0;" edge="1" parent="1" source="czHhYplGZpNrWgwJSrv3-20" target="czHhYplGZpNrWgwJSrv3-39">
          <mxGeometry relative="1" as="geometry" />
        </mxCell>
        <mxCell id="czHhYplGZpNrWgwJSrv3-13" style="edgeStyle=orthogonalEdgeStyle;rounded=0;orthogonalLoop=1;jettySize=auto;html=1;exitX=1;exitY=0.5;exitDx=0;exitDy=0;entryX=0;entryY=0.5;entryDx=0;entryDy=0;" edge="1" parent="1" source="czHhYplGZpNrWgwJSrv3-20" target="czHhYplGZpNrWgwJSrv3-42">
          <mxGeometry relative="1" as="geometry" />
        </mxCell>
        <mxCell id="czHhYplGZpNrWgwJSrv3-14" style="edgeStyle=orthogonalEdgeStyle;rounded=0;orthogonalLoop=1;jettySize=auto;html=1;exitX=1;exitY=0.5;exitDx=0;exitDy=0;entryX=0;entryY=0.5;entryDx=0;entryDy=0;" edge="1" parent="1" source="czHhYplGZpNrWgwJSrv3-20" target="czHhYplGZpNrWgwJSrv3-54">
          <mxGeometry relative="1" as="geometry" />
        </mxCell>
        <mxCell id="czHhYplGZpNrWgwJSrv3-15" style="edgeStyle=orthogonalEdgeStyle;rounded=0;orthogonalLoop=1;jettySize=auto;html=1;exitX=1;exitY=0.5;exitDx=0;exitDy=0;entryX=0;entryY=0.5;entryDx=0;entryDy=0;" edge="1" parent="1" source="czHhYplGZpNrWgwJSrv3-20" target="czHhYplGZpNrWgwJSrv3-63">
          <mxGeometry relative="1" as="geometry" />
        </mxCell>
        <mxCell id="czHhYplGZpNrWgwJSrv3-16" style="edgeStyle=orthogonalEdgeStyle;rounded=0;orthogonalLoop=1;jettySize=auto;html=1;exitX=0.5;exitY=1;exitDx=0;exitDy=0;entryX=0.5;entryY=0;entryDx=0;entryDy=0;" edge="1" parent="1" source="czHhYplGZpNrWgwJSrv3-20" target="czHhYplGZpNrWgwJSrv3-28">
          <mxGeometry relative="1" as="geometry" />
        </mxCell>
        <mxCell id="czHhYplGZpNrWgwJSrv3-17" style="edgeStyle=orthogonalEdgeStyle;rounded=0;orthogonalLoop=1;jettySize=auto;html=1;exitX=1;exitY=0.5;exitDx=0;exitDy=0;entryX=0;entryY=0.5;entryDx=0;entryDy=0;" edge="1" parent="1" source="czHhYplGZpNrWgwJSrv3-20" target="czHhYplGZpNrWgwJSrv3-36">
          <mxGeometry relative="1" as="geometry" />
        </mxCell>
        <mxCell id="czHhYplGZpNrWgwJSrv3-18" style="edgeStyle=orthogonalEdgeStyle;rounded=0;orthogonalLoop=1;jettySize=auto;html=1;exitX=0;exitY=0.25;exitDx=0;exitDy=0;entryX=0.5;entryY=1;entryDx=0;entryDy=0;" edge="1" parent="1" source="czHhYplGZpNrWgwJSrv3-20" target="czHhYplGZpNrWgwJSrv3-47">
          <mxGeometry relative="1" as="geometry" />
        </mxCell>
        <mxCell id="czHhYplGZpNrWgwJSrv3-19" style="edgeStyle=orthogonalEdgeStyle;rounded=0;orthogonalLoop=1;jettySize=auto;html=1;exitX=0.75;exitY=1;exitDx=0;exitDy=0;entryX=0.5;entryY=0;entryDx=0;entryDy=0;" edge="1" parent="1" source="czHhYplGZpNrWgwJSrv3-20" target="czHhYplGZpNrWgwJSrv3-57">
          <mxGeometry relative="1" as="geometry" />
        </mxCell>
        <mxCell id="czHhYplGZpNrWgwJSrv3-20" value="Dashboard" style="rounded=0;whiteSpace=wrap;html=1;" vertex="1" parent="1">
          <mxGeometry x="780" y="625" width="120" height="60" as="geometry" />
        </mxCell>
        <mxCell id="czHhYplGZpNrWgwJSrv3-21" style="edgeStyle=orthogonalEdgeStyle;rounded=0;orthogonalLoop=1;jettySize=auto;html=1;exitX=0.5;exitY=0;exitDx=0;exitDy=0;entryX=0.5;entryY=1;entryDx=0;entryDy=0;" edge="1" parent="1" source="czHhYplGZpNrWgwJSrv3-23" target="czHhYplGZpNrWgwJSrv3-25">
          <mxGeometry relative="1" as="geometry" />
        </mxCell>
        <mxCell id="czHhYplGZpNrWgwJSrv3-22" style="edgeStyle=orthogonalEdgeStyle;rounded=0;orthogonalLoop=1;jettySize=auto;html=1;exitX=1;exitY=0.5;exitDx=0;exitDy=0;entryX=0;entryY=0.5;entryDx=0;entryDy=0;" edge="1" parent="1" source="czHhYplGZpNrWgwJSrv3-23" target="czHhYplGZpNrWgwJSrv3-24">
          <mxGeometry relative="1" as="geometry" />
        </mxCell>
        <mxCell id="czHhYplGZpNrWgwJSrv3-23" value="Login" style="rounded=0;whiteSpace=wrap;html=1;" vertex="1" parent="1">
          <mxGeometry x="310" y="515" width="120" height="60" as="geometry" />
        </mxCell>
        <mxCell id="czHhYplGZpNrWgwJSrv3-24" value="Register" style="rounded=0;whiteSpace=wrap;html=1;" vertex="1" parent="1">
          <mxGeometry x="490" y="515" width="120" height="60" as="geometry" />
        </mxCell>
        <mxCell id="czHhYplGZpNrWgwJSrv3-25" value="Reset password" style="rounded=0;whiteSpace=wrap;html=1;" vertex="1" parent="1">
          <mxGeometry x="310" y="410" width="120" height="60" as="geometry" />
        </mxCell>
        <mxCell id="czHhYplGZpNrWgwJSrv3-26" style="edgeStyle=orthogonalEdgeStyle;rounded=0;orthogonalLoop=1;jettySize=auto;html=1;exitX=0.5;exitY=1;exitDx=0;exitDy=0;entryX=0.5;entryY=0;entryDx=0;entryDy=0;" edge="1" parent="1" source="czHhYplGZpNrWgwJSrv3-28" target="czHhYplGZpNrWgwJSrv3-29">
          <mxGeometry relative="1" as="geometry" />
        </mxCell>
        <mxCell id="czHhYplGZpNrWgwJSrv3-27" style="edgeStyle=orthogonalEdgeStyle;rounded=0;orthogonalLoop=1;jettySize=auto;html=1;exitX=0.5;exitY=1;exitDx=0;exitDy=0;entryX=0.5;entryY=0;entryDx=0;entryDy=0;" edge="1" parent="1" source="czHhYplGZpNrWgwJSrv3-28" target="czHhYplGZpNrWgwJSrv3-30">
          <mxGeometry relative="1" as="geometry" />
        </mxCell>
        <mxCell id="czHhYplGZpNrWgwJSrv3-28" value="My orders" style="rounded=0;whiteSpace=wrap;html=1;" vertex="1" parent="1">
          <mxGeometry x="530" y="775" width="120" height="60" as="geometry" />
        </mxCell>
        <mxCell id="czHhYplGZpNrWgwJSrv3-29" value="Order details" style="rounded=0;whiteSpace=wrap;html=1;" vertex="1" parent="1">
          <mxGeometry x="460" y="910" width="120" height="60" as="geometry" />
        </mxCell>
        <mxCell id="czHhYplGZpNrWgwJSrv3-30" value="Add feedback" style="rounded=0;whiteSpace=wrap;html=1;" vertex="1" parent="1">
          <mxGeometry x="600" y="910" width="120" height="60" as="geometry" />
        </mxCell>
        <mxCell id="czHhYplGZpNrWgwJSrv3-31" style="edgeStyle=orthogonalEdgeStyle;rounded=0;orthogonalLoop=1;jettySize=auto;html=1;exitX=0.5;exitY=1;exitDx=0;exitDy=0;entryX=0.5;entryY=0;entryDx=0;entryDy=0;" edge="1" parent="1" source="czHhYplGZpNrWgwJSrv3-32" target="czHhYplGZpNrWgwJSrv3-34">
          <mxGeometry relative="1" as="geometry" />
        </mxCell>
        <mxCell id="czHhYplGZpNrWgwJSrv3-32" value="Cart details" style="rounded=0;whiteSpace=wrap;html=1;" vertex="1" parent="1">
          <mxGeometry x="310" y="730" width="120" height="60" as="geometry" />
        </mxCell>
        <mxCell id="czHhYplGZpNrWgwJSrv3-33" style="edgeStyle=orthogonalEdgeStyle;rounded=0;orthogonalLoop=1;jettySize=auto;html=1;exitX=1;exitY=0.5;exitDx=0;exitDy=0;entryX=0;entryY=0.5;entryDx=0;entryDy=0;" edge="1" parent="1" source="czHhYplGZpNrWgwJSrv3-34" target="czHhYplGZpNrWgwJSrv3-28">
          <mxGeometry relative="1" as="geometry" />
        </mxCell>
        <mxCell id="czHhYplGZpNrWgwJSrv3-34" value="Cart completion" style="rounded=0;whiteSpace=wrap;html=1;" vertex="1" parent="1">
          <mxGeometry x="310" y="840" width="120" height="60" as="geometry" />
        </mxCell>
        <mxCell id="czHhYplGZpNrWgwJSrv3-35" style="edgeStyle=orthogonalEdgeStyle;rounded=0;orthogonalLoop=1;jettySize=auto;html=1;exitX=1;exitY=0.5;exitDx=0;exitDy=0;entryX=0;entryY=0.5;entryDx=0;entryDy=0;" edge="1" parent="1" source="czHhYplGZpNrWgwJSrv3-36" target="czHhYplGZpNrWgwJSrv3-37">
          <mxGeometry relative="1" as="geometry" />
        </mxCell>
        <mxCell id="czHhYplGZpNrWgwJSrv3-36" value="Feedback list" style="rounded=0;whiteSpace=wrap;html=1;" vertex="1" parent="1">
          <mxGeometry x="1180" y="390" width="120" height="60" as="geometry" />
        </mxCell>
        <mxCell id="czHhYplGZpNrWgwJSrv3-37" value="Feedback details" style="rounded=0;whiteSpace=wrap;html=1;" vertex="1" parent="1">
          <mxGeometry x="1350" y="390" width="120" height="60" as="geometry" />
        </mxCell>
        <mxCell id="czHhYplGZpNrWgwJSrv3-38" value="" style="edgeStyle=orthogonalEdgeStyle;rounded=0;orthogonalLoop=1;jettySize=auto;html=1;" edge="1" parent="1" source="czHhYplGZpNrWgwJSrv3-39" target="czHhYplGZpNrWgwJSrv3-68">
          <mxGeometry relative="1" as="geometry" />
        </mxCell>
        <mxCell id="czHhYplGZpNrWgwJSrv3-39" value="Order list" style="rounded=0;whiteSpace=wrap;html=1;" vertex="1" parent="1">
          <mxGeometry x="1180" y="470" width="120" height="60" as="geometry" />
        </mxCell>
        <mxCell id="czHhYplGZpNrWgwJSrv3-41" value="" style="edgeStyle=orthogonalEdgeStyle;rounded=0;orthogonalLoop=1;jettySize=auto;html=1;" edge="1" parent="1" source="czHhYplGZpNrWgwJSrv3-42" target="czHhYplGZpNrWgwJSrv3-44">
          <mxGeometry relative="1" as="geometry" />
        </mxCell>
        <mxCell id="czHhYplGZpNrWgwJSrv3-73" style="edgeStyle=orthogonalEdgeStyle;rounded=0;orthogonalLoop=1;jettySize=auto;html=1;exitX=1;exitY=0.5;exitDx=0;exitDy=0;entryX=0;entryY=0.5;entryDx=0;entryDy=0;" edge="1" parent="1" source="czHhYplGZpNrWgwJSrv3-42" target="czHhYplGZpNrWgwJSrv3-72">
          <mxGeometry relative="1" as="geometry" />
        </mxCell>
        <mxCell id="czHhYplGZpNrWgwJSrv3-42" value="User list" style="rounded=0;whiteSpace=wrap;html=1;" vertex="1" parent="1">
          <mxGeometry x="1180" y="655" width="120" height="60" as="geometry" />
        </mxCell>
        <mxCell id="czHhYplGZpNrWgwJSrv3-43" value="" style="edgeStyle=orthogonalEdgeStyle;rounded=0;orthogonalLoop=1;jettySize=auto;html=1;" edge="1" parent="1" source="czHhYplGZpNrWgwJSrv3-44" target="czHhYplGZpNrWgwJSrv3-45">
          <mxGeometry relative="1" as="geometry" />
        </mxCell>
        <mxCell id="czHhYplGZpNrWgwJSrv3-44" value="User details" style="rounded=0;whiteSpace=wrap;html=1;" vertex="1" parent="1">
          <mxGeometry x="1350" y="655" width="120" height="60" as="geometry" />
        </mxCell>
        <mxCell id="czHhYplGZpNrWgwJSrv3-45" value="Update user details" style="rounded=0;whiteSpace=wrap;html=1;" vertex="1" parent="1">
          <mxGeometry x="1520" y="655" width="120" height="60" as="geometry" />
        </mxCell>
        <mxCell id="czHhYplGZpNrWgwJSrv3-46" style="edgeStyle=orthogonalEdgeStyle;rounded=0;orthogonalLoop=1;jettySize=auto;html=1;exitX=1;exitY=0.5;exitDx=0;exitDy=0;entryX=0;entryY=0.5;entryDx=0;entryDy=0;" edge="1" parent="1" source="czHhYplGZpNrWgwJSrv3-47" target="czHhYplGZpNrWgwJSrv3-50">
          <mxGeometry relative="1" as="geometry" />
        </mxCell>
        <mxCell id="czHhYplGZpNrWgwJSrv3-47" value="Product list" style="rounded=0;whiteSpace=wrap;html=1;" vertex="1" parent="1">
          <mxGeometry x="640" y="320" width="120" height="60" as="geometry" />
        </mxCell>
        <mxCell id="czHhYplGZpNrWgwJSrv3-48" style="edgeStyle=orthogonalEdgeStyle;rounded=0;orthogonalLoop=1;jettySize=auto;html=1;exitX=1;exitY=0.5;exitDx=0;exitDy=0;entryX=0;entryY=0.5;entryDx=0;entryDy=0;" edge="1" parent="1" source="czHhYplGZpNrWgwJSrv3-47" target="czHhYplGZpNrWgwJSrv3-52">
          <mxGeometry relative="1" as="geometry" />
        </mxCell>
        <mxCell id="czHhYplGZpNrWgwJSrv3-49" style="edgeStyle=orthogonalEdgeStyle;rounded=0;orthogonalLoop=1;jettySize=auto;html=1;exitX=1;exitY=0.5;exitDx=0;exitDy=0;entryX=0;entryY=0.5;entryDx=0;entryDy=0;" edge="1" parent="1" source="czHhYplGZpNrWgwJSrv3-50" target="czHhYplGZpNrWgwJSrv3-51">
          <mxGeometry relative="1" as="geometry" />
        </mxCell>
        <mxCell id="czHhYplGZpNrWgwJSrv3-50" value="Product details" style="rounded=0;whiteSpace=wrap;html=1;" vertex="1" parent="1">
          <mxGeometry x="860" y="320" width="120" height="60" as="geometry" />
        </mxCell>
        <mxCell id="czHhYplGZpNrWgwJSrv3-51" value="Update product" style="rounded=0;whiteSpace=wrap;html=1;" vertex="1" parent="1">
          <mxGeometry x="1060" y="270" width="120" height="60" as="geometry" />
        </mxCell>
        <mxCell id="czHhYplGZpNrWgwJSrv3-52" value="Add product" style="rounded=0;whiteSpace=wrap;html=1;" vertex="1" parent="1">
          <mxGeometry x="860" y="220" width="120" height="60" as="geometry" />
        </mxCell>
        <mxCell id="czHhYplGZpNrWgwJSrv3-54" value="Settings list" style="rounded=0;whiteSpace=wrap;html=1;" vertex="1" parent="1">
          <mxGeometry x="1180" y="735" width="120" height="60" as="geometry" />
        </mxCell>
        <mxCell id="czHhYplGZpNrWgwJSrv3-56" style="edgeStyle=orthogonalEdgeStyle;rounded=0;orthogonalLoop=1;jettySize=auto;html=1;exitX=0.5;exitY=1;exitDx=0;exitDy=0;entryX=0.5;entryY=0;entryDx=0;entryDy=0;" edge="1" parent="1" source="czHhYplGZpNrWgwJSrv3-57" target="czHhYplGZpNrWgwJSrv3-60">
          <mxGeometry relative="1" as="geometry" />
        </mxCell>
        <mxCell id="czHhYplGZpNrWgwJSrv3-57" value="Post list" style="rounded=0;whiteSpace=wrap;html=1;" vertex="1" parent="1">
          <mxGeometry x="810" y="860" width="120" height="60" as="geometry" />
        </mxCell>
        <mxCell id="czHhYplGZpNrWgwJSrv3-58" style="edgeStyle=orthogonalEdgeStyle;rounded=0;orthogonalLoop=1;jettySize=auto;html=1;exitX=0.5;exitY=1;exitDx=0;exitDy=0;entryX=0;entryY=0.5;entryDx=0;entryDy=0;" edge="1" parent="1" source="czHhYplGZpNrWgwJSrv3-57" target="czHhYplGZpNrWgwJSrv3-69">
          <mxGeometry relative="1" as="geometry" />
        </mxCell>
        <mxCell id="czHhYplGZpNrWgwJSrv3-59" style="edgeStyle=orthogonalEdgeStyle;rounded=0;orthogonalLoop=1;jettySize=auto;html=1;exitX=1;exitY=0.5;exitDx=0;exitDy=0;entryX=0;entryY=0.5;entryDx=0;entryDy=0;" edge="1" parent="1" source="czHhYplGZpNrWgwJSrv3-60" target="czHhYplGZpNrWgwJSrv3-61">
          <mxGeometry relative="1" as="geometry" />
        </mxCell>
        <mxCell id="czHhYplGZpNrWgwJSrv3-60" value="Post details" style="rounded=0;whiteSpace=wrap;html=1;" vertex="1" parent="1">
          <mxGeometry x="810" y="970" width="120" height="60" as="geometry" />
        </mxCell>
        <mxCell id="czHhYplGZpNrWgwJSrv3-61" value="Update post" style="rounded=0;whiteSpace=wrap;html=1;" vertex="1" parent="1">
          <mxGeometry x="1000" y="1020" width="120" height="60" as="geometry" />
        </mxCell>
        <mxCell id="czHhYplGZpNrWgwJSrv3-62" value="" style="edgeStyle=orthogonalEdgeStyle;rounded=0;orthogonalLoop=1;jettySize=auto;html=1;entryX=0;entryY=0.5;entryDx=0;entryDy=0;exitX=1;exitY=0.5;exitDx=0;exitDy=0;" edge="1" parent="1" source="czHhYplGZpNrWgwJSrv3-63" target="czHhYplGZpNrWgwJSrv3-65">
          <mxGeometry relative="1" as="geometry" />
        </mxCell>
        <mxCell id="czHhYplGZpNrWgwJSrv3-63" value="Slider list" style="rounded=0;whiteSpace=wrap;html=1;" vertex="1" parent="1">
          <mxGeometry x="1180" y="820" width="120" height="60" as="geometry" />
        </mxCell>
        <mxCell id="czHhYplGZpNrWgwJSrv3-64" value="" style="edgeStyle=orthogonalEdgeStyle;rounded=0;orthogonalLoop=1;jettySize=auto;html=1;" edge="1" parent="1" source="czHhYplGZpNrWgwJSrv3-65" target="czHhYplGZpNrWgwJSrv3-66">
          <mxGeometry relative="1" as="geometry" />
        </mxCell>
        <mxCell id="czHhYplGZpNrWgwJSrv3-65" value="Slider details" style="rounded=0;whiteSpace=wrap;html=1;" vertex="1" parent="1">
          <mxGeometry x="1350" y="820" width="120" height="60" as="geometry" />
        </mxCell>
        <mxCell id="czHhYplGZpNrWgwJSrv3-66" value="Update slider" style="rounded=0;whiteSpace=wrap;html=1;" vertex="1" parent="1">
          <mxGeometry x="1520" y="820" width="120" height="60" as="geometry" />
        </mxCell>
        <mxCell id="czHhYplGZpNrWgwJSrv3-68" value="Order details" style="rounded=0;whiteSpace=wrap;html=1;" vertex="1" parent="1">
          <mxGeometry x="1350" y="470" width="120" height="60" as="geometry" />
        </mxCell>
        <mxCell id="czHhYplGZpNrWgwJSrv3-69" value="Add post" style="rounded=0;whiteSpace=wrap;html=1;" vertex="1" parent="1">
          <mxGeometry x="1000" y="920" width="120" height="60" as="geometry" />
        </mxCell>
        <mxCell id="czHhYplGZpNrWgwJSrv3-70" value="Update user info&amp;nbsp;" style="rounded=0;whiteSpace=wrap;html=1;" vertex="1" parent="1">
          <mxGeometry x="870" y="410" width="120" height="60" as="geometry" />
        </mxCell>
        <mxCell id="czHhYplGZpNrWgwJSrv3-72" value="Add user" style="rounded=0;whiteSpace=wrap;html=1;" vertex="1" parent="1">
          <mxGeometry x="1350" y="565" width="120" height="60" as="geometry" />
        </mxCell>
      </root>
    </mxGraphModel>
  </diagram>
</mxfile>
